<?xml version="1.0" ?><!DOCTYPE svg  PUBLIC '-//W3C//DTD SVG 1.1//EN'  'http://www.w3.org/Graphics/SVG/1.1/DTD/svg11.dtd'><svg height="512px" style="enable-background:new 0 0 512 512;" version="1.1" viewBox="0 0 512 512" width="512px" xml:space="preserve" xmlns="http://www.w3.org/2000/svg" xmlns:xlink="http://www.w3.org/1999/xlink"><g id="_x31_37-freebsd"><g><path d="M361.335,156.683c24.337,24.438,53.393,34.911,64.793,23.514    c11.397-11.397,78.958-118.593,54.625-142.929c-24.335-24.437-131.532,43.229-142.93,54.625    C326.321,103.29,336.898,132.349,361.335,156.683z" style="fill:#D30000;"/><path d="M443.583,171.777c3.388,11.603,2.771,21.254-2.773,26.799    c-20.844,20.844-89.845-27.722-112.228-71.978c-18.482-33.164-11.398-54.83,15.297-50.004c5.854-3.696,12.632-7.803,20.127-11.91    c-30.598-15.916-65.305-24.951-102.165-24.951c-122.291,0-221.375,99.084-221.375,221.375    c0,122.188,99.084,221.375,221.375,221.375c122.29,0,221.376-99.084,221.376-221.375c0-39.429-10.37-76.497-28.444-108.633    C450.769,159.66,446.971,166.129,443.583,171.777z" style="fill:#D30000;"/><path d="M138.832,63.041C101.56,41.888,48.577,18.375,31.737,35.317    c-17.045,17.044,7.291,71.258,28.647,108.531C79.38,110.786,106.384,82.96,138.832,63.041z" style="fill:#D30000;"/></g></g><g id="Layer_1"/></svg>